<svg width="32" height="32" viewBox="0 0 32 32" fill="none" xmlns="http://www.w3.org/2000/svg">
  <!-- 渐变背景 -->
  <defs>
    <linearGradient id="skyGradient" x1="0" y1="0" x2="0" y2="32" gradientUnits="userSpaceOnUse">
      <stop offset="0%" stop-color="#87CEEB"/>
      <stop offset="100%" stop-color="#F0F9FF"/>
    </linearGradient>
    
    <linearGradient id="sunsetGradient" x1="0" y1="0" x2="32" y2="32" gradientUnits="userSpaceOnUse">
      <stop offset="0%" stop-color="#FF6B6B"/>
      <stop offset="100%" stop-color="#FFB6B6"/>
    </linearGradient>

    <!-- 添加光芒滤镜 -->
    <filter id="glow" x="-50%" y="-50%" width="200%" height="200%">
      <feGaussianBlur in="SourceGraphic" stdDeviation="1" result="blur"/>
      <feColorMatrix in="blur" type="matrix" values="
        1 0 0 0 1
        0 1 0 0 0.8
        0 0 1 0 0
        0 0 0 1 0
      "/>
    </filter>
  </defs>

  <!-- 背景圆 -->
  <circle cx="16" cy="16" r="16" fill="url(#skyGradient)"/>
  
  <!-- 太阳光芒 -->
  <g>
    {/* 创建8个光芒 */}
    <path d="M14 6 L14 9" stroke="#FFD700" stroke-width="1.5" stroke-linecap="round">
      <animate attributeName="opacity" values="0.5;1;0.5" dur="2s" repeatCount="indefinite"/>
    </path>
    <path d="M20 8 L18 11" stroke="#FFD700" stroke-width="1.5" stroke-linecap="round">
      <animate attributeName="opacity" values="0.5;1;0.5" dur="2s" repeatCount="indefinite" begin="0.25s"/>
    </path>
    <path d="M22 14 L19 14" stroke="#FFD700" stroke-width="1.5" stroke-linecap="round">
      <animate attributeName="opacity" values="0.5;1;0.5" dur="2s" repeatCount="indefinite" begin="0.5s"/>
    </path>
    <path d="M20 20 L18 17" stroke="#FFD700" stroke-width="1.5" stroke-linecap="round">
      <animate attributeName="opacity" values="0.5;1;0.5" dur="2s" repeatCount="indefinite" begin="0.75s"/>
    </path>
    <path d="M14 22 L14 19" stroke="#FFD700" stroke-width="1.5" stroke-linecap="round">
      <animate attributeName="opacity" values="0.5;1;0.5" dur="2s" repeatCount="indefinite" begin="1s"/>
    </path>
    <path d="M8 20 L10 17" stroke="#FFD700" stroke-width="1.5" stroke-linecap="round">
      <animate attributeName="opacity" values="0.5;1;0.5" dur="2s" repeatCount="indefinite" begin="1.25s"/>
    </path>
    <path d="M6 14 L9 14" stroke="#FFD700" stroke-width="1.5" stroke-linecap="round">
      <animate attributeName="opacity" values="0.5;1;0.5" dur="2s" repeatCount="indefinite" begin="1.5s"/>
    </path>
    <path d="M8 8 L10 11" stroke="#FFD700" stroke-width="1.5" stroke-linecap="round">
      <animate attributeName="opacity" values="0.5;1;0.5" dur="2s" repeatCount="indefinite" begin="1.75s"/>
    </path>
  </g>
  
  <!-- 太阳主体 -->
  <circle cx="14" cy="16" r="6" fill="#FFA500" filter="url(#glow)">
    <animate attributeName="opacity" values="0.9;1;0.9" dur="2s" repeatCount="indefinite"/>
  </circle>
  
  <!-- 火烧云 -->
  <path d="
    M 16 11
    C 16 11 19 11 21 12
    C 24 13 26 15 26 18
    C 26 21 24 23 21 23
    H 13
    C 10 23 8 21 8 18
    C 8 15 10 13 13 13
    C 14 11 15 11 16 11
    Z" 
    fill="url(#sunsetGradient)" 
    fill-opacity="0.9"
  />
</svg> 